<svg xmlns="http://www.w3.org/2000/svg" id="Layer_1" viewBox="0 0 105.59 117.35" width="105.59" height="117.35"><defs><style>.cls-1{fill:#fff}</style></defs><path d="M86.45 11.73c1.62 3.41 0 10.24 2.18 11.45 1.24.69 17.33 13.7 17 16.7-.77 6.12 0 23.59-.08 26.2-.19 10.51-.29 21-.66 31.52a46.4 46.4 0 0 1-1.54 9.16c-.62 2.59-2.18 2.87-4.37 1.4-1.36-.91-3.12-1.2-4.53-2-10-6.07-18.4-14-25.93-22.76l5.87-3.54c1.85 2.07 4.07 4.89 6.65 7.34 1.85 1.76 4.33 2.83 6.25 4.53 2.15 1.89 3.92 4.18 6 6.21 1.78 1.77 3 4.32 6.35 4.73 0-18.41 1.12-39 1.12-57-.46-.25-6.74 4.8-8.59 6.57-5.66 5.43-11.19 11-16.76 16.52C71.6 72.41 68 76.27 64.14 79.8a100.23 100.23 0 0 1-9.51 7.38 2.89 2.89 0 0 1-2.69-.35c-4.6-4.09-9-8.35-13.59-12.48-4.18-3.79-8.48-7.45-12.62-11.27-2-1.87-3.73-4.07-5.72-6Q13.56 51 6.94 45c-1.72-1.54-2.56-4.16-5.89-3.87-1.51.13-1.3-1.77 0-2.73 3.25-2.32 6.45-4.69 9.73-6.94 2-1.35 4.07-2.51 6.09-3.78.21-.12 3.23-3.32 3.22-3.7 0-2.68.77-9 1.35-9A80.07 80.07 0 0 0 31.65 14c4.86-1.79 16-9.54 21.22-14 4.06-.24 17.66 10.6 23.58 11.79a29.24 29.24 0 0 0 10-.06zm-5 6.71c-4.22 0-8.93-.08-13.65 0-7.66.16-15.32.43-23 .68-5.59.17-19.09.07-19.2.65-.52 2.6-.11 24.72.54 33.09a7.42 7.42 0 0 0 2.24 4.3c6 5.8 12.25 11.43 18.39 17.13 2.42 2.24 4.82 4.51 7.37 6.9 1.84-1.75 3.39-3.29 5-4.75 7.95-7.06 15.86-14.1 23.78-21.2a2.59 2.59 0 0 0 .63-1.85c-.17-3.55-.48-7.09-.69-10.64-.49-8.16-.95-16.32-1.41-24.31zM5.72 100.53c4.55-3.1 8.46-5.94 12.55-8.49 4.46-2.77 9.09-5.26 13.64-7.88a3.53 3.53 0 0 1 1.22-.62c1.54-.08 3.08-.05 4.62-.07-.59 1.22-.87 2.89-1.84 3.58-4 2.83-8.2 5.41-12.37 8-4.43 2.76-8.94 5.43-13.38 8.18-1.89 1.16-3.59 2.75-5.6 3.58-2.21.91-3.17-.65-3.2-2.72-.05-3.6 0-7.21 0-10.8-.17-6.51-.51-13-.64-19.51-.12-5.67 0-11.33-.09-17 0-2-.61-4.11-.56-6.15 0-.87 1.05-1.71 1.61-2.57.7.69 1.82 1.28 2 2.1A65.77 65.77 0 0 1 6 72.55c-.5 6.38.37 12.85.41 19.29.06 2.99-.41 5.97-.69 8.69zm91.53 14.2a61.21 61.21 0 0 0-6.91 0c-6.92.77-13.8 2-20.73 2.5-4.91.32-9.89-.35-14.84-.6-7.72-.39-15.46-.59-23.15-1.29-6.42-.59-12.88 1.7-19.26-.52-.73-.26-1.78.51-2.62.39a12.92 12.92 0 0 1-2.9-1.16c.78-.82 1.49-2.24 2.36-2.35 3.77-.48 7.58-.61 11.38-.81 5-.26 10-.67 15-.64 7.8 0 15.59.52 23.38.57 4.77 0 9.56-.8 14.29-.52 6.56.38 13.08 1.42 19.61 2.24 1.49.18 3 .6 4.44.91z" class="cls-1"/><path d="M31.49 43.36c3.41-.51 6.79-1.27 10.21-1.47 10.25-.6 20.51-1 30.77-1.46a36.24 36.24 0 0 1 5.06-.38 2.89 2.89 0 0 1 2 1.91c0 .7-1 1.76-1.81 2.16a9.08 9.08 0 0 1-3.65.8q-19.41.42-38.81.7a25.41 25.41 0 0 1-3.74-.5zM42.65 29c7.89-.37 15.79-.8 23.69-1.08a18.76 18.76 0 0 1 5.08.71c.74.17 1.92 1 1.89 1.41a3 3 0 0 1-1.48 2.08 10.36 10.36 0 0 1-4 .9c-6.77.09-13.53 0-20.3.06-4.8 0-9.59.07-14.39-.07-1 0-1.91-.87-2.87-1.34.84-.6 1.6-1.52 2.52-1.73 3.22-.76 6.49-1.27 9.73-1.87zm-8.37 25.66c2.61-.52 5.2-1.37 7.82-1.49 4.19-.18 8.4.22 12.6.19 6.49 0 13-.23 19.47-.35 1.62 0 3.84-.23 3.47 2.06-.16 1-2.46 2.26-3.82 2.31-3.55.13-7.13-.56-10.69-.52-7.91.08-15.81.47-23.72.6a29.53 29.53 0 0 1-5.21-.82z" class="cls-1"/></svg>