<svg xmlns="http://www.w3.org/2000/svg" id="Layer_1" viewBox="0 0 109.64 103.16" width="109.64" height="103.16"><defs><style>.cls-1{fill:#fff}</style></defs><path d="M6 92.76a9.48 9.48 0 0 1-2-4.89 5.22 5.22 0 0 0-.4-1.82C1.84 83.6 2 80.86 2 78.09c0-1.56-.42-3.11-.5-4.68-.05-1 .4-2.1.23-3.09-1.59-8.95-.74-18-1-27-.07-2.42-.88-4.93-.42-7.2s-.47-4.33-.31-6.51 0-4.47 0-6.7 0-4.48.1-6.71a19.6 19.6 0 0 1 .61-3.12c3-1 4.63 1.46 6.9 1.72 1.52 1.67 1.81 3.67 1.81 5.86a82.56 82.56 0 0 1-1.26 14.48 1.73 1.73 0 0 0 0 .32c-.22 3.9-.61 7.81-.63 11.71-.08 13.74 0 27.48 0 41.23A5.22 5.22 0 0 1 6 92.76zm95.06-75.05c3-3.37 3.1-3.42 6-3.47a4.39 4.39 0 0 1 1 4.86 7.13 7.13 0 0 0-.28 2.5 74 74 0 0 0 0 8.94 152.59 152.59 0 0 1 .61 15.85c0 .81-.06 1.61 0 2.41.25 3.46.53 6.93.82 10.4a9.88 9.88 0 0 1 .29 2.6c-1.07 4.83-.23 9.72-.49 14.57a4.15 4.15 0 0 0 0 1.27c1.24 4.69-1.76 7.88-4 11.33-.09.13-.38.13-.77.26-1.89-.83-1.85-2.73-2-4.42-.29-3.2-.21-6.44-.69-9.61a53.21 53.21 0 0 1-.21-8.27c0-2.12-.22-4.23-.34-6.35 0-.53-.06-1.06-.06-1.59.12-13.73.12-27.46.12-41.28zm-68.7 22.08A17.66 17.66 0 0 1 44.24 42a8.48 8.48 0 0 1 3.89 4.59c1.62 4.3.67 8.35-1 12.2a8.7 8.7 0 0 1-7.13 5.5c-2.25.27-4.38 1-6.81.19a12 12 0 0 1-4.32-2.38C25.53 59.17 23 52.64 25 47.36c1.08-2.82 3.42-4.5 5.53-6.39a13.48 13.48 0 0 1 1.83-1.18zm67.06-36.4c-2.9-.24-5.24 1.15-8 .34a10.73 10.73 0 0 0-5.37-.07c-3.06.77-6.12.53-9.17.52A95.19 95.19 0 0 0 60.84 5.4c-3.41.56-7 .37-10.4.75-7.19.79-14.41.34-21.6.71-3.62.19-7.18 1.59-10.84 1.91a20.05 20.05 0 0 1-10.33-1.4 10.69 10.69 0 0 1-2-1.65c1.78-2.45 4.21-3 6.76-3.15 3.89-.26 7.8-.41 11.69-.67 1.78-.12 3.55-.51 5.32-.56 1 0 2.09.66 3.07.53C37.66 1.23 42.87 1.72 48 .71a3.09 3.09 0 0 1 1 0c3.72.44 7.52-.56 11.23.55a3.52 3.52 0 0 0 2.2 0c2.08-.98 4.24-.33 6.4-.33 2.71 0 5.41-.26 8.11-.43 2-.14 4-.73 6-.41 4.21.71 8.41.48 12.61.54 1.64.03 3.13.26 3.87 2.76zM72.49 66.81c-4.78.35-8.66-1.49-11-5.45s-3.68-8.52-1.72-13.24A5.38 5.38 0 0 1 61.1 46a58.61 58.61 0 0 1 7.5-5.73A11 11 0 0 1 83.11 44a14.88 14.88 0 0 1 1.22 3.55A20 20 0 0 1 84.51 60a7.42 7.42 0 0 1-3.66 4.57c-2.59 1.24-5.27 2.77-8.36 2.24zm-4.87-7.9a8.34 8.34 0 0 0 8 2.27c2.42-1.68 2.24-1.76 3.1-3.56 1.56-3.29-.15-6.22-.85-9.2-.43-1.85-2.06-3.08-3.77-3.86h-4.71c-4.79 4.13-5.18 7.56-1.77 14.35zm-53.51 42.76c.12-.58.1-.94.27-1.16A18.42 18.42 0 0 1 15.79 99l22.91-.56c8.36-.21 16.73-.45 25.09-.62a27 27 0 0 1 3.43.41 5.3 5.3 0 0 0 2.18.13c2.39-.89 4.83-.41 7.25-.56 3-.2 6.1-.65 9.14-.57 2.87.07 5.83.43 7.88 2.8-.29 1.26-1.13 1.3-2 1.33-6.55.21-13.11.45-19.67.62a27.7 27.7 0 0 1-3.11-.36c-.61-.05-1.22 0-1.83 0h-8.82c-.3 0-.68-.35-.89-.25-2.92 1.37-5.81-.41-8.71-.08-3.76.42-7.5.95-11.27 1.19-3.23.21-6.49 0-9.73.11-1.56 0-3.12.55-4.67.49a54.36 54.36 0 0 1-6.21-.8 26.87 26.87 0 0 1-2.65-.61z" class="cls-1"/></svg>