<svg xmlns="http://www.w3.org/2000/svg" id="Layer_1" viewBox="0 0 103.5 103.38" width="103.5" height="103.38"><defs><style>.cls-1{fill:#fff}</style></defs><path d="M20 .77a2.83 2.83 0 0 0 .11.31h.15zm0-.06s0 .01 0 0zm-.28-.29l.28.29-.11-.36zm82.82 59.14l.08.11a7.07 7.07 0 0 0 .6-1.24zm-4.9-.49a.59.59 0 0 0-.22-.25l-.66.28a.81.81 0 0 1 .18.1 4.73 4.73 0 0 1 .45.36 11.23 11.23 0 0 0 .9.72h.31l-.08-.16c-.77.1-.68-.61-.88-1.05zM42.05.91s.01-.01 0 0zM4.55 66.1v-.27z" class="cls-1"/><path d="M103.28 55.55c-.24-.68-.66-8-.67-9.24a25.7 25.7 0 0 0-.47-5.68 11.4 11.4 0 0 1-.33-2.16c0-1.44 0-2.89.08-4.33v-1.51l-.17-.12a15.61 15.61 0 0 0 .15-4.6 3.5 3.5 0 0 1-.07-.65V21.5c0-.43.18-.95 0-1.25-.44-.7-.22-1.41-.3-2.11a9.13 9.13 0 0 1-.08-1.38c0-.93.9-13.62.09-15.62-.51-1.2-4.69-.51-5.24-.55a21 21 0 0 0-2.83.21 12.41 12.41 0 0 1-2-.07A21.41 21.41 0 0 0 89.2.36c-1.61 0-3.21.15-4.81.2h-3.33c-.63 0-1.27-.06-1.9-.05-.86 0-1.73.14-2.58.11-1.11 0-2.15-.73-3.31-.35h-.12c-.63 0-1.28.07-1.92.09h-1.07L68.37.3a10.1 10.1 0 0 1-2.11-.3 3 3 0 0 1-1.88 0 14.25 14.25 0 0 1-2 1C61.24.68 43 1 41.92 1.5c.06-.3.1-.45.13-.59l-.89.4a3 3 0 0 0-.81-.17c-1 .05-2 .15-2.93.22-1.35.11-2.69.23-4 .32-.82.05-1.65 0-2.47.07-1.82.1-3.64.24-5.47.35-.15 0-1.27-.39-1.82-.56 0-.24-1.34-.4-3.38-.45l-.12.09v-.1c-5.55-.11-16 .62-18.49 3-.66 1.19.08 5.91-.83 6-.45.54-.84 33.83-.28 35.47-.81.52-.6 1.18-.24 1.93A12.26 12.26 0 0 1 1 49.42l-.66.41c.25 1.17.52 2.17.78 3.24l-.55.1c.34.56.62 1 .92 1.53l-.49.62c.11.27.23.59.35.91.12.54-.07 1.2.16 1.65a3.49 3.49 0 0 1 0 2.32c0 .7-.12 1.39-.1 2.07s.18 1.64.31 2.66a2.43 2.43 0 0 0-.2 1.8h.22-.22a6 6 0 0 0 0 1c.09.49.25 1 .37 1.43-.1.31-.2.61-.31.93.07.28.15.59.22.91a3.87 3.87 0 0 0-.34 1.27c-.07.87-.09 1.76-.13 2.64 0 .17.05.35.06.53.1 1.26.66 2.54-.22 3.81 1.11.76.17 1.91.51 2.91.22-.22.34-.36.46-.5l.12.09-.56 1.37.46.31c.06.44.11.78.17 1.14l1.56.22c0-.37 0-.62.08-.94.45-.34.44-.8.31-1.36a6.58 6.58 0 0 1-.15-2 23.26 23.26 0 0 0 0-5.34 1.94 1.94 0 0 1 .11-1.44 1.38 1.38 0 0 0 0-.76c-.08-1.4-.17-2.8-.26-4.2H4c.09-.32.18-.64.26-1s.07-.47.12-.7l.21-1v-.27l.57-.9c-1.37-1.18-1-2.55-.45-4.08l-.53-.19.09-.13.73-.06a5.38 5.38 0 0 0 .23-1.17c0-.81-.35-1.65.39-2.32l-.5-.79c.14-.26.28-.53.44-.85 1 .09.58-1 1.1-1.32l1.22.5.81-.47c.52.1 1.11.24 1.71.33 1.39.2 2.78.4 4.18.56.76.08 1.53 0 2.29.12 1.23.12 2.47.33 3.7.4a43.29 43.29 0 0 1 4.82.29 3.14 3.14 0 0 1 2.67 2.46 16.63 16.63 0 0 0 .84 2.43c.35.9.77 1.78 1.1 2.69s.54 1.85.86 2.77a2.45 2.45 0 0 0 .54.86c.77.9 1.59 1.75 2.36 2.65a13.61 13.61 0 0 0 2.88 2.89 3.91 3.91 0 0 1 .78.55 26.54 26.54 0 0 1 1.82 2c.89 1.16 2.3 1.52 3.42 2.34a15.66 15.66 0 0 0 1.77.95c1 .68 2.09.36 3.06.3a7 7 0 0 0 .92 0c.79-.13 1.58-.23 2.35-.43s1.26-.49 1.89-.7c.94-.32 1.89-.59 2.83-.92s2.06-.76 3.09-1.12a13.91 13.91 0 0 0 2-.65c.94-.49 1.75-1.27 2.72-1.66 1.29-.51 1.87-1.69 2.81-2.53a5.34 5.34 0 0 0 .9-1.1c.53-.8 1-1.67 1.53-2.43.85-1.11 1.1-2.48 1.74-3.68a14.3 14.3 0 0 0 .59-1.32c.11-.27.32-.57.28-.84-.14-1.25.77-2 1.34-2.86a1.31 1.31 0 0 1 1.75-.52l.67.26a3 3 0 0 0 2.05.25c.13 0 .31 0 .47.07l1 .27.73-.36v.16l2.64.35.41-.54 2.3-.29a3.9 3.9 0 0 1 .59 0c1.33 0 2.66-.19 4-.13a24.1 24.1 0 0 1 3.13.54c.2 0 .43.18.58.12.86-.35 1.67 0 2.5.11a3.14 3.14 0 0 1 1.48.46l.66-.28a.59.59 0 0 1 .22.25c.2.44.11 1.15.88 1.08l.08.16.38.69-.5.78c.74.68.4 1.52.39 2.33a5.38 5.38 0 0 0 .23 1.17l.72.11.09.13-.53.18c.53 1.54.92 2.91-.45 4.08l.57.91V71l.21 1c0 .23.07.47.12.7s.17.64.26 1c-.09 1.4-.18 2.8-.26 4.2a1.48 1.48 0 0 0 0 .76A1.94 1.94 0 0 1 100 80a22.71 22.71 0 0 0 0 5.34 7.26 7.26 0 0 1-.16 2c-.13.57-.14 1 .31 1.37 0 .32 0 .57.08.94l1.56-.22c.06-.37.11-.7.17-1.15.09 0 .25-.17.46-.31-.23-.47-.42-.9-.62-1.32l.12-.1.45.51c.35-1-.59-2.15.52-2.91-.88-1.27-.32-2.55-.22-3.81 0-.18.06-.36.06-.53 0-.89-.06-1.77-.13-2.65a3.71 3.71 0 0 0-.35-1.27c.08-.31.16-.62.22-.9-.1-.33-.2-.63-.3-.93.13-.48.3-.95.38-1.43a6.13 6.13 0 0 0 0-1h-.22.22a2.42 2.42 0 0 0-.2-1.8c.13-1 .28-1.84.31-2.66s-.11-1.38-.1-2.07a3.52 3.52 0 0 1 0-2.33c.22-.45 0-1.1.16-1.64l.34-.91c-.16-.22-.29-.38-.39-.51l-.08-.11.68-1.13.12-.38a4.19 4.19 0 0 0-.11-2.54zM26.36 12.43c.13.48.23.83.32 1.18l-.16.1-.83-.77zm-.87 0v.21l-.49.05a2.46 2.46 0 0 1 0-.26zm-4 5.18a2.25 2.25 0 0 1-2.66-1l1.09-.11a2.07 2.07 0 0 1 1.58 1.13zm-1.42.31L20 18a.19.19 0 0 1 0-.08zm-.7-2.45v.64c-.47.24-.89.26-1.18-.13a.69.69 0 0 1 .08-.68c.32-.3.73-.19 1.11.19zm-1.37-1h.11H18zm-3.94-3.6l1.28.43.45-.12.71.61.26.68c-.27.42-.54.84-.84 1.29-.62-.06-.39-.74-.73-1.08a4.05 4.05 0 0 1-.81-.27c-.29-.17-.67-.39-.75-.66s.26-.5.44-.82zm1.2 9.37h-.06l-.46.17c.08-.37.12-.62.18-.85h.19l.09.68zm-1.73-2.42l.73.39-.07.16-.76-.36zm-3.22-3.46l.68.24-.06.19-.71-.17zM9.06 26.63c.08.21.17.42.25.64l-.3.11-.19-.67zm-1.67-10h.11a2.07 2.07 0 0 0 0 .22h-.11a1.55 1.55 0 0 0 0-.21zm-.77-1.25h.25a.44.44 0 0 1 0 .1h-.25s-.01-.06 0-.09zm.18.8c-.59.75-1.29.85-1.72.29.65-.6 1.22-.71 1.72-.28zm-3.6 5.09a8 8 0 0 1 1.09.29c1 .42 2.2.46 2.93 1.44a2.11 2.11 0 0 1 .19.23c.07.12.13.25.24.48l-.59 1.05h.7l.32.49c.06.45.12.91.2 1.48H7c-.6-.95-1.77-1-2.65-1.52-.47-.63-.93-1.21-1.35-1.89l.43-.54c-.1-.43-.15-.9-.23-1.51zm4.67 6.15v.15l-.11-.05.07-.12zm-4.87 3l1.3.17-.49 1a1.64 1.64 0 0 0 1.85 0c.34.31.69.65 1.11 1.06.79-.14 1.07 0 1.56 1a6.12 6.12 0 0 0 .81 1l-.7.92H7.43l-.31.16-.23-.17-2.39.34c-.17-.09-.42-.24-.71-.42l.26-.48-.67-.51.49-.3c-.23-.39-.44-.77-.66-1.15h-.1V31.7l-.52-.11c.16-.4.3-.76.41-1.17zm1.68 6.12l-.42.13v-.26l.42-.07a1.46 1.46 0 0 0 .04.2zm-1.68 2l-.62-.38c.06-.47.11-1 .17-1.51l.59-.32q.08-.28.15-.6l.21-.07c.11.23.21.47.31.69l-1 .55 2.09 1c.1.28.04 1.1 1.1 1.17L4.68 40.2c0 .08.06.23.1.42-.13.17-.28.35-.41.54l-.26.15a2.77 2.77 0 0 0-.26-.55 5.39 5.39 0 0 0-.78-.87c-.53-.42-.34-.89-.07-1.35zm.63 9a2 2 0 0 1-.33-.05v-.13l.42-.07c-.06.15-.09.27-.12.27zm8.54 2.9l-.69-.1v.11l.43.26-1 .39c0 .36.06.54.09.77l-.66.12a.59.59 0 0 0 0-.13l-2.09-.76-.5.09c-.82-.21-1.17-1.37-2.28-.93-.41-.91-.8-1.75-1.21-2.65l.54-.34-.75-.61.15-.17v-.51c-.91-.92-.91-.92-.82-1.53a7 7 0 0 1 1.7-.1c.51.08 1.18.09 1.3.88l1.22.17c.2.75.53 1.35 1.42 1.26l3.17 3.67zm6.45-.89l-1.43-.25.61-1c.81.27 1 .57.79 1.27zm1.2-17.76c-.05.19-.1.38-.15.62l-.42-.22c-.63.63-1.26 0-1.94 0-.19-1.07-1.59-1.57-1.26-2.94l-1.18-1.06c0-.1.08-.26.13-.44l-1.17-1.3L12 24.87h-.72c0-.25.07-.42.07-.47l-.57-1.23L11 23a5 5 0 0 1 1.17.6 5.57 5.57 0 0 1 .83 1.09l.33-.41.68.09c-.09.53-.16 1-.24 1.5.89 0 1-.79 1.53-1.22.6.55.19 1.08.1 1.55.18.4.36.77.53 1.13l1.24-.16c.64.79 1.72 1 1.82 2.13.11-.13.22-.26.34-.42l.43.77a3.26 3.26 0 0 0-.23.29 7.28 7.28 0 0 1 .76.94c.25.48-.07.75-.5.93zm.75-13.43c.67-.47 1.09 0 1.53.43l.47-.53c.76.69 1.43 1.3 2.22 2l1 .16L27 21.76v.33l.43.31c.22.66.43 1.31.66 2l-.45.33-.93-1.5-1.6-.08c-.35-.74-1.6-.86-1.3-2l-.67-.15c-.08-.13-.17-.29-.3-.49h-1.17c-.29-.78-1.23-1.14-1.13-2.13zm9 27.36c-.21.79-.39 1.7-.68 2.57-.19.59-.64 1.12-.77 1.72-.16.81-.89.85-1.39 1.26q-1.34-.47-1.71 0l-.6-.27c-.58.68-.64.71-1.43.54l-.24-.54h1l-1.28-.82c.64-.89 1.85-.22 2.32-1.24-.13-.35-.28-.76-.44-1.16h-.24V43.9l1.31-.59c1 .59 1.76.08 2.49-.65a1.51 1.51 0 0 0 1.95-.11l1.29.29c.49.9-.08 1.93-1.6 2.9zm44.52-35.9v.23l-.77.53c-.07-.31-.11-.51-.19-.84zm-3.94 8.61l.24.25-.14.12c-.08-.08-.15-.17-.22-.25zM68 14.71v.15zm-6-1.64zm0 0l1.17-.86 3.58 1.51c0 .34-.06.54-.1.83l.79.66-.27.4c.15.79.84.27 1.36.67l-.53.32c0 .44 0 .75.06 1.15.41.13 1.05.12 1.09.85 1.34.4 1.78 1.5 2.09 2.83l1.07-.17.39.18c.93-.32.92-.31 1.27.6.09.27.31.49.39.75s.24.69.11.86a1.58 1.58 0 0 1-.94.54 1.23 1.23 0 0 1-.86-.36c-.57-.57-1.08-1.21-1.67-1.83-.09-.1-.22-.24-.32-.24a1.63 1.63 0 0 1-1.43-1c-.07-.12-.22-.18-.33-.26a2.1 2.1 0 0 0-1-2.13 1.92 1.92 0 0 0-1.12-.18l-1.51-.47c0-.2 0-.39-.1-.69l-1-.58c-.26-.6-.54-1.3-.86-2a1.37 1.37 0 0 0-1.51-.94zm8.85 14l-.46.09c.16-.42.28-.72.42-1.07 1.79.43 2.69 1.68 3.49 3.31-.16.33-.35.77-.55 1.19l-1-.21-.35-.54c-1.48-.43-1.73-1.13-.78-2zm-1.08-2.39l-.33.26a1.74 1.74 0 0 0-.11-.18l.35-.2zm-.94-.07v1h-.15v-1zm-.36 5c-.4.56-1.13.31-2-.6a4.64 4.64 0 0 1-.81-.16 1.48 1.48 0 0 1-.64-.4c-.42-.47-.76-1-1.21-1.46a2.87 2.87 0 0 0-1-.41c-.27-.48-.48-.88-.72-1.31.2-.42.41-.84.62-1.27H63c0 .26.08.52.13.8 1 .26 2.2.35 2.59 1.7.49.23 1.05.43 1.56.71a1.68 1.68 0 0 1 .77 2zm-19.7-17.5a1.22 1.22 0 0 1 .38-.07 5.14 5.14 0 0 1 2.91 1.14 2.43 2.43 0 0 1 1.18 1.42c.11.44.81.72 1.22 1.1.64.59 1.49 1 1.51 1.87.39.54.65.91.9 1.24-.13.28-.21.46-.34.77l1.45.7.11-.18 1.29 1.17.49.1-.09.09 1.9 2.13v.85a1 1 0 0 1-1.37-.07 4.49 4.49 0 0 1-.57-1.27l-.62-.1-.38-.45c-.88-.75-2.32-.82-2.65-2.24l-.77-.31.11-.1c-.47-.46-.91-.94-1.42-1.36s-1-.67-1.49-1.05c-.67-.55-1.3-1.14-1.9-1.74l-1-.67c-1.21-.73-.93-1.86-.85-2.97zm10.83 17.1l-.15.22c-.21-.06-.49-.06-.6-.2s0-.41-.05-.63l.24-.07c.18.23.37.47.56.68zm-1.39-1c-.85.08-.87-.61-1.08-1.11.32.39 1.18.25 1.08 1.11zm-1.39-1.48l-.12-.05zm-11.39-8.79a1.86 1.86 0 0 0 .1.25l.6.08c.24.3.44.53.58.69a2.4 2.4 0 0 1 2.55 1c1.19.38 1.68 1.5 2.5 2.25-.06.49-.12 1-.21 1.6a12.52 12.52 0 0 0-1.25-.5 6.91 6.91 0 0 0-1.2-.15.8.8 0 0 1-.82-.65 2.11 2.11 0 0 0-.5-.74 4.82 4.82 0 0 0-.8-.88 7.78 7.78 0 0 0-1.14-.61L46 20c-.32-.25-.6-.49-.94-.77l.69-.46c-.06-.19-.12-.38-.19-.58l-.23-.1zm3.4 14.36a.5.5 0 0 1 0-.12h.05zm-.26.62l-1.11.38c-1.41-.1-1.55-.23-2.11-1.95.69-1.19 1.09-1.3 2.88-.78.12.77.23 1.56.34 2.35zm-3.48-16.47a1.17 1.17 0 0 0 0 .2h-.07a1.74 1.74 0 0 0-.11-.18zm-1.09.87v.13h-.16v-.08zM42.85 16l.08-.13.45.21c-.05.31-.09.56-.14.91l-.61-.24v-.15l.53-.15c-.16-.18-.23-.32-.31-.45zm-2.06 6.93l1 .92-.88.32c-.07.13-.16.28-.22.4l-.54-.57c-.16-.2-.31-.4-.47-.59zm-1 1.55l-.13.09-1.2-.78.62-.6.16.12v.3c.19.33.37.6.54.87zm-2.85-12.17a8.68 8.68 0 0 0 2.89.74c.06 0 .1.06.18.12-.55.6-1.19.12-1.82.07 0 .29 0 .46.06.65l-.25.19-1.28.23-.49-.31-.9-1.61a1.58 1.58 0 0 1 1.61-.08zm28.63 49.62A5.53 5.53 0 0 1 65 64c-.57 1-1 2.11-1.65 3.06a10.13 10.13 0 0 1-1.7 1.63l-.94.82a7.24 7.24 0 0 1-4.18 1.84 3.47 3.47 0 0 0-.81.26v.05l-1.5.31c-1.26.25-2.53.65-3.79 0v.18a10.58 10.58 0 0 1-1.16-.15 38.68 38.68 0 0 1-3.81-1.12 20.88 20.88 0 0 1-2.89-1.59 12.86 12.86 0 0 1-2.14-1.47 26.7 26.7 0 0 1-2-2.34 6.22 6.22 0 0 1-.94-1.27c-.34-.79-.72-1.56-1-2.37-.21-.66-.24-1.38-.43-2.06a3.61 3.61 0 0 0-.51-.94c-.14-.23-.46-.43-.46-.65a1.61 1.61 0 0 0-1.09-1.7c0-.23.07-.44.09-.65a2.43 2.43 0 0 0 0-1 5.45 5.45 0 0 1 0-2.66 8 8 0 0 1 1.14-3.26c.17-.33.36-.65.56-1 .41-.67.79-1.36 1.26-2 .61-.81 1.29-1.56 1.94-2.33a4.2 4.2 0 0 0 .58-.77 3.82 3.82 0 0 1 2.1-1.74 9.57 9.57 0 0 1 3.2-1.18c.11 0 .22-.16.24-.17l3-.37.17-.28a6 6 0 0 0 .9-.42 2.77 2.77 0 0 1 1.94-.53 1 1 0 0 0 .43 0c1.37-.4 2.53.19 3.68.77a17.4 17.4 0 0 1 3 1.76 5.41 5.41 0 0 1 2.05 2.54.39.39 0 0 0 .17.23A8.45 8.45 0 0 1 63 46.92c.63 1.4 1.48 2.71 2.09 4.12a12.09 12.09 0 0 1 .59 2.51c.17.81.37 1.63.46 2.46a17.67 17.67 0 0 1 0 2.06 2.25 2.25 0 0 0 .06.63c-.2 1.07-.47 2.14-.63 3.23zM74.49 45a2.83 2.83 0 0 1-2.6-1.12c-.79-1.09-1.66-2.12-2.42-3.09-1.45-.09-1.91-1.3-2.84-1.85 0-.19-.09-.36-.14-.59l-.72-.15-.67-.7c-.41-.57-.81-1.14-1.31-1.86l-2.14-2.19.56-1.31-1-1.05a1.37 1.37 0 0 1 .17-.17c.19.13.38.26.53.38a5.74 5.74 0 0 1 3.21 1.8 9.4 9.4 0 0 1 1.8 2.53 2.19 2.19 0 0 0 .92.83c.68.4 1.06 1.27 2 1.24.12 0 .24.14.36.2l1 .49.12-.11c.26.23.52.46.76.7s.44.46.7.74c-.09.55.22.84.77 1.06a15 15 0 0 1 2.07 1.06 4.66 4.66 0 0 1 .75.71l.5.15.34.63h-.13c.08.93.18 1.87.28 3A10.85 10.85 0 0 1 74.49 45zm6.36-10.68c-1-.5-2.15-.39-2.76-1.68l1.41-1.09c1.07.1 1.63.59 1.7 1.45l-.48.6c.03.17.06.4.13.72zm.74 24.26h-.15a1.21 1.21 0 0 0 0-.18h.16zm3-11.94c0-.47.1-.89.16-1.37l.75-.16c-.1.3-.16.5-.2.64.23.88 1.52.5 1.63 1.45-.55.8-1.78.46-2.34-.56zm2.82 1.73c0-.06-.07-.12-.11-.17l.07-.07.16.13zm.51-9.78l-.14-.13.64-.69.18.17c.04.47-.43.46-.68.65zm-.12-1c-.2-.66-1.19-.33-1.2-1.37l1.08.43.28-.5 1 .82zm3.59 4.94h-.18c-.13-.21-.25-.43-.43-.72l.61-.21zm1.22-10.07c0-.28.08-.45.14-.75l.53.48zM94 31.32l-.32-.2.17-.21a3.08 3.08 0 0 1 .27.24.52.52 0 0 1-.12.17zm1.75-9.55c0 .44-5.24.38-5.74.34-.8-.07-1.58-.31-2.38-.34a8.13 8.13 0 0 0-2.08.22 9.45 9.45 0 0 1-6.14-1c-.7-.32-.48-1.68-.67-2.76a42.32 42.32 0 0 1 .17-5 7.36 7.36 0 0 0-.28-3c-.51-1.23-.48-3.61 1.07-3.74.7-.06 1.41 0 2.11 0 .91 0 1.82-.06 2.72 0 1.49.15 7.94-.69 9.29-.39.46.1 1.75.49 2.29.64.34.38-.26 8.73-.24 9.69.02 1.24-.05 4.09-.12 5.34zM99 60.85l-.07-.16H99c0 .06 0 .11.07.16zm2.22 2.65v-.08s.02.07.01.08zM80.4 102.12a17.94 17.94 0 0 1-4 .41c-1 0-2.07.07-3.09.13a21.89 21.89 0 0 1-4.21.11c-.37 0-.79.07-1.18.07H62.2q-3.61 0-7.21.12c-1.32 0-2.64.06-4 .11-.3 0-.6.07-.89.06-.85 0-1.71-.08-2.56-.1a35 35 0 0 0-5-.15 21.12 21.12 0 0 1-3.73 0c-2.33-.1-4.67-.15-7-.23-1.08 0-2.16-.12-3.23-.1-1.4 0-2.8.12-4.21.18l-3.9.15-1.81.08-3.13.13H13a9.31 9.31 0 0 1-1.29-.08c-1 .12-1.92.3-2.89.33a6.14 6.14 0 0 1-2.13-.28 19.16 19.16 0 0 0-3-.6l-.73-.13a5.57 5.57 0 0 1-.63-.75 1.25 1.25 0 0 1-.23-.76c.12-.63.34-1.25.49-1.87.09-.35.41-.52 1-.6l3.64-.5a5.53 5.53 0 0 1 .71 0l.44-.25v.08c.74 0 1.49 0 2.23.07s1.47.14 2.22.18h1.79c1 0 2 .16 3 .16a9.25 9.25 0 0 0 2-.27 12.6 12.6 0 0 1 4.93-.3 23.36 23.36 0 0 0 2.53.38h1.43c.48 0 1 0 1.51.06.8 0 1.59.16 2.38.16 1 0 2-.07 3-.13a5.15 5.15 0 0 0 1-.12 6.7 6.7 0 0 1 3 .18 2.41 2.41 0 0 0 1.22-.05 6.2 6.2 0 0 1 3.2 0 6.79 6.79 0 0 0 3.23.13c.78 0 1.56.11 2.34.11h2c1.13 0 1.93.07 2.72.13a22.26 22.26 0 0 0 4.55.18.76.76 0 0 1 .3 0 7.44 7.44 0 0 0 3 .18 12.34 12.34 0 0 1 2.6.15 2 2 0 0 0 .42 0 7.44 7.44 0 0 1 1.94.1 16.35 16.35 0 0 0 2.46.19 15.55 15.55 0 0 0 2.46 0 9.48 9.48 0 0 1 3.09.3 1.81 1.81 0 0 0 .65 0 33.9 33.9 0 0 1 4.16-.09 6.06 6.06 0 0 1 1.26.18v-.31c1.51.64 3.33.22 4.88.55l.09.45 1.58.4-.07.1c.82.28 1.6-.1 2.39-.07.2.33 0 .62-.56.59a14.54 14.54 0 0 0-4.06.58 16.85 16.85 0 0 1-2.79.23c-.7.07-1.46.04-2.06.04z" class="cls-1"/><path d="M5.09 66.37L5 66.6h-.1v-.25zm93.99-5.56h-.07l-.07-.16h.07c-.01.06.05.11.07.16zm2.15 2.69v-.08s.01.07 0 .08zM4.55 65.83h.02v.27h-.02zM27.46 44h-.29v-.14h.28zm25.26-29.7l-.03.04-.01-.05.04.01zm16.44 4.31a.2.2 0 0 1 0 .08.59.59 0 0 0 0-.08zm-51.34 9.73h-.26l.24-.08zm1.18.96v.28-.28zM5.3 32.17v.36h-.17v-.36zm-1.99-1.39l.22.06v.1h-.25zm.91-6.46l-.01-.04.04.02-.03.02zm41.93-4.91c.66.26.69.3.35.85l-.33-.86zm.02-.01c-.06-.05 0 0 0 0zM3 37.34l.19.09v.09L3 37.44zm34-23.61zm3.78 10.1v.08h-.05v-.1z" class="cls-1"/></svg>