<svg xmlns="http://www.w3.org/2000/svg" id="Layer_1" viewBox="0 0 118.41 108.09" width="118.41" height="108.09"><defs><style>.cls-1{fill:#fff}</style></defs><path d="M15.59 58.9a1.4 1.4 0 0 1 .79 1.79 1.43 1.43 0 0 0 .37 1.54 1.38 1.38 0 0 1 .25 1.63 1 1 0 0 1-.53.44c-.51.18-1.06.25-1.57.45a1.05 1.05 0 0 0-.57.62c0 .16.25.42.45.73.33-.38.61-.65.84-1 .46-.62.65-.63 1.12 0a2.22 2.22 0 0 0-.18 2.71 3.54 3.54 0 0 1 0 3.17 1.49 1.49 0 0 0 .19 1.48c.16.33.3.68.45 1v.07c.45 1.17.34 2.14-.89 2.63a4.6 4.6 0 0 1 .28 2.91c-.1.26.08.62.13 1-.52.37-.52.36.06.75a.45.45 0 0 1 .16.31c-.2 1.17.61 2 .92 3 .22.69.57 1.34.85 2a1 1 0 0 1 0 .45 2.66 2.66 0 0 0 1.72 3.11c1.07.53 2.1 1.15 3.18 1.67a8.33 8.33 0 0 0 1.91.72c1.53.35 2.68 1.51 4.13 2a11.07 11.07 0 0 0 1.26.32c.71.15 1.43.3 2.15.41a3.19 3.19 0 0 0 1.15 0c.74-.14 1.45-.42 2.18-.57a4.38 4.38 0 0 1 3 .63 6.29 6.29 0 0 0 1.92.53 31.17 31.17 0 0 1 3.24.41c1.94.52 3.81 1.31 5.76 1.8a45.84 45.84 0 0 0 5 .84c1.41.21 2.83.44 4.26.52 1.1.07 2.23-.15 3.34-.1a8.12 8.12 0 0 1 2.06.53 17 17 0 0 0 2.38.79 6 6 0 0 0 1.7-.36 3.7 3.7 0 0 1 2.88.42 5.6 5.6 0 0 0 .68.26 7.64 7.64 0 0 1 .69.47l-.08.24h2.47a6.34 6.34 0 0 1 1.37.17c2.1.54 4.22-.25 6.32 0 1.28.18 2.54.45 3.81.65a3.55 3.55 0 0 0 1.45 0c2.34-.71 4.77-.71 7.15-1.06.33 0 .68.06 1 0s.94-.08 1.42-.12h.56a2.89 2.89 0 0 0 1-.14 6.43 6.43 0 0 1 6.14.1 6.69 6.69 0 0 1 1.42.83 1.12 1.12 0 0 1-.15 1.87 6.66 6.66 0 0 1-1.31.65 25.21 25.21 0 0 1-2.61 1.15 9 9 0 0 1-2.5.48c-1.73 0-3.46-.16-5.18-.09a38.8 38.8 0 0 0-4.28.54c-1.8.27-3.6.58-5.41.86-.85.13-1.72.25-2.58.3-1.72.1-3.45.18-5.17.21H70.7a18.71 18.71 0 0 1-2.89-.36 3.15 3.15 0 0 0-2.28.13.56.56 0 0 1-.21.06c-1.65.15-3.3.4-5 .42-1.43 0-2.85-.23-4.28-.31-1.15-.07-2.29-.11-3.44-.08-1 0-2 .16-3 .22-1.48.07-3 .16-4.45.16-.52 0-1-.32-1.56-.34-2.82-.08-5.65-.08-8.47-.18-.91 0-1.8-.35-2.71-.48-1.11-.17-2.22-.28-3.33-.4-.21 0-.44.06-.65 0l-4.77-1c-.91-.18-1.82-.45-2.74-.54a29 29 0 0 1-5.21-.92 51.4 51.4 0 0 1-5-2.08 7.65 7.65 0 0 1-4.11-4.08c-.2-.45-.64-.78-.83-1.23a3.93 3.93 0 0 1-.52-1.85 5 5 0 0 0-1-3.48A2.55 2.55 0 0 1 4 88.89a3.09 3.09 0 0 0 .18-1.34 1.93 1.93 0 0 1 .62-1.86.72.72 0 0 0 .08-1.13 3 3 0 0 1-.48-2.72c.09-.78.23-1.54.38-2.55l-.81.62C3.63 79 3.28 78 3 77a15.59 15.59 0 0 1-.3-2.16c-.09-.85-.19-1.7-.23-2.55a6.71 6.71 0 0 1 .2-1.29c.09-.65.24-1.29.29-1.94s0-1.5 0-2.25a1.42 1.42 0 0 0-.19-.81c-.29-.37-.57-.66-.28-1.2a5.78 5.78 0 0 0 .37-1.11c-.19-.47-.37-1-.6-1.47a12.4 12.4 0 0 0-.88-1.65c-.21-.33-.25-.56.09-.75s.53-.67.53-1.15a14.1 14.1 0 0 1 .36-1.94 3.5 3.5 0 0 0-.92-2.43 1.56 1.56 0 0 1-.64-.82 4.77 4.77 0 0 1-.14-3v-.07c-.46-1.3.44-2.33.69-3.48A2.51 2.51 0 0 0 1.13 45 1.84 1.84 0 0 1 1 43.11a2.47 2.47 0 0 0 .06-.87c0-.88 0-1.77.11-2.65 0-.23.28-.45.54-.84-.28-.78-.67-1.69-.94-2.63a2.71 2.71 0 0 1 0-1.41c.14-.51.16-.81-.39-1a.83.83 0 0 1-.38-.59 3.32 3.32 0 0 1 .51-2.25 1.77 1.77 0 0 0 .23-1.93l-.34.64s-.05 0-.05-.07v-4.59a1.83 1.83 0 0 1 .25-.79 2.53 2.53 0 0 0 .3-1.82 3.9 3.9 0 0 1 .22-1.47c.17-.93.32-1.86.56-2.77a3.56 3.56 0 0 1 .65-1.25c.48-.62 1.06-1.16.63-2.09a.84.84 0 0 1 .18-.73 10.6 10.6 0 0 0 1.43-3.5 6.89 6.89 0 0 1 1.74-2.6c.8-.82 1.56-1.69 2.42-2.43A9 9 0 0 1 10.94 4a34.84 34.84 0 0 1 5.25-1.9 21.32 21.32 0 0 1 3.93-.1 16.85 16.85 0 0 0 1.72-.22c.68-.1 1.35-.21 2-.29 1.42-.17 2.84-.32 4.26-.46a8.91 8.91 0 0 1 1.46 0A5.39 5.39 0 0 0 32.4.77a2 2 0 0 1 1 0 27.45 27.45 0 0 0 3.1.42c1.64 0 3.28-.18 4.92-.22 1.26 0 2.53.09 3.79 0a18.91 18.91 0 0 0 2.21-.32 3.48 3.48 0 0 1 1.42-.11 5.2 5.2 0 0 0 2.16.1c1-.12 1.94 0 2.91-.08.68 0 1.35-.18 2-.22 1.14-.05 2.25-.08 3.37-.06s2.52.16 3.78.15c2.16 0 4.32-.15 6.48-.14C72.08.3 74.6.12 77.14 0a16.84 16.84 0 0 1 2.52.31A3.61 3.61 0 0 0 81 .38c1.68-.5 3.29 0 4.93.19 1 .12 1.92.35 2.89.45s2 0 3 .18c.74.12 1.64-.1 2.19.73a.68.68 0 0 0 .39.18l2.83.48a1.34 1.34 0 0 0 .44 0c2.31-.43 4.44.56 6.65.85a.83.83 0 0 0 .15 0c2-.24 3.25 1.07 4.64 2.17a2 2 0 0 0 .48.33c1.84.65 2.81 2.28 3.82 3.82.79 1.19 1.39 2.52 2.16 3.74a27.82 27.82 0 0 1 1.94 4.09c.27.63.23 1.42.54 2a3.76 3.76 0 0 1 .27 2.49 12.37 12.37 0 0 0 0 2c0 .46-.05.91-.09 1.36-.12 1.4-.36 2.79-.34 4.18a11.53 11.53 0 0 1-.43 3.61 5.54 5.54 0 0 0-.12 1.29c-.06.9-.08 1.81-.15 2.71-.09 1.16-.3 2.32-.28 3.48a26.15 26.15 0 0 1-.39 4.15 11.64 11.64 0 0 0 0 2.36 13.51 13.51 0 0 1-.51 5.58 1.15 1.15 0 0 0-.09.51 17.71 17.71 0 0 1-.43 5.08c0 .1-.06.22 0 .29.42.9-.08 1.71-.2 2.56a11.59 11.59 0 0 0-.29 2.46 18.12 18.12 0 0 1-.85 5.29 3.61 3.61 0 0 0 .09 2.08 2.76 2.76 0 0 1-.16 1.76 6.91 6.91 0 0 0-.32 3.68 5 5 0 0 1 0 2.57 1 1 0 0 0 .06.66 7.31 7.31 0 0 1 .2 3.94c-.26 1.76-1.11 3.26-1.5 4.93a2.66 2.66 0 0 0 0 1 1.52 1.52 0 0 1-1.29 1.77 1.17 1.17 0 0 1-1.35-1 9.69 9.69 0 0 1-.13-1.63A2.61 2.61 0 0 0 109 87a5.36 5.36 0 0 1-1.11-2.16 29.11 29.11 0 0 1-.64-3.35 17.94 17.94 0 0 1-.36-2.62 5.68 5.68 0 0 1 .34-2 2.16 2.16 0 0 0 0-1.62 4.49 4.49 0 0 1 0-2.85 8.87 8.87 0 0 0-.22-3.09c-.17-1.23-.37-2.46-.61-3.68a3 3 0 0 0-.53-1.37 2.17 2.17 0 0 1-.41-2.27 5.2 5.2 0 0 0-.11-2.83c-.06-.5-.2-1-.25-1.49a.93.93 0 0 1 .21-.62 2.67 2.67 0 0 0 .73-2.15 27.5 27.5 0 0 1 .26-4c.14-1.47 0-3 .09-4.39.1-1.66 0-3.29 0-4.93 0-2.07.25-4.15.31-6.23a19.73 19.73 0 0 0-.22-2.65 10.25 10.25 0 0 1 .19-3.78c.09-.36-.15-.82-.23-1.24a8.63 8.63 0 0 1-.23-1.41V23a1.45 1.45 0 0 0-.13-.59 8.1 8.1 0 0 1-.59-3.34 10.69 10.69 0 0 0-.21-1.49 17.78 17.78 0 0 1-.58-2.83 5.1 5.1 0 0 0-1.28-2.68A8.41 8.41 0 0 0 99.19 9a7.62 7.62 0 0 0-1.41-.34c-1.11-.17-2.23-.29-3.33-.45a1.81 1.81 0 0 1-.76-.21 3.61 3.61 0 0 0-3.11-.53 15.31 15.31 0 0 1-3 0c-.39 0-.77 0-1.16.07a4.19 4.19 0 0 1-1.78.09c-1.54-.63-3.18-.39-4.75-.71-2 .76-3.76-.49-5.66-.5h-.8c-1.75.06-3.49.17-5.24.18-1 0-2-.16-3-.23a2.28 2.28 0 0 0-.94 0 8.87 8.87 0 0 1-3.4.21 1.38 1.38 0 0 0-.5 0 10.36 10.36 0 0 1-3.84.21c-.63 0-1.25-.2-1.87-.26a11 11 0 0 0-1.52 0c-2.12.15-4.26.7-6.36.19a8.41 8.41 0 0 0-4.17 0 19.66 19.66 0 0 1-2.18 0 5.69 5.69 0 0 1-2.5.1 11.45 11.45 0 0 0-2.26 0c-2.72-.11-5.44-.37-8.16-.35a8.47 8.47 0 0 0-4.8 1.09c-1.28.83-2.67 1.48-3.93 2.35A4.26 4.26 0 0 0 17 12a10.9 10.9 0 0 1-.67 1.26 3.63 3.63 0 0 0 0 3.15 3.86 3.86 0 0 1-.05 2.95c-.23.74-.42 1.5-.62 2.25a2.83 2.83 0 0 1-.13.52 2.65 2.65 0 0 0 .45 3.44 1.8 1.8 0 0 1 .37 1.9 24.08 24.08 0 0 0-.8 3.33 8.08 8.08 0 0 0 .12 1.82c0 .27.13.61 0 .81a4.34 4.34 0 0 0 0 3.3 4.92 4.92 0 0 1-1 4.23c-.09.12-.2.23-.29.35-.72.91-.62 1.48.4 1.95a.71.71 0 0 1 .51.8c-.07.78-.15 1.57-.19 2.36 0 .39.05.79.06 1.19v2a1.77 1.77 0 0 0 0 .46 29 29 0 0 1 .93 2.93 9.16 9.16 0 0 1 .1 2.51 17.18 17.18 0 0 1-.49 2 9.59 9.59 0 0 0-.11 1.39z" class="cls-1"/><path d="M81.93 24.91l-.28.32c.63.36 0 1.1.38 1.49a12 12 0 0 0 1.29 1c.07.06.09.18.13.24 1.24-.58 1.43-.53 2.23.49a2.06 2.06 0 0 0 .57.57 1.94 1.94 0 0 1 1.07 1.61.69.69 0 0 0 .11.28c.45.68.95 1.33 1.35 2s.55 1.28.85 1.91c.19.38.45.73.65 1.11a1.29 1.29 0 0 1 .16.61c0 1.27-.11 2.54-.21 3.81a1.81 1.81 0 0 1-.75 1.5 1.79 1.79 0 0 0-.82 2.22 2.9 2.9 0 0 1-.29 2.35 6.94 6.94 0 0 0-.66 1.58 6.71 6.71 0 0 0-.11 1.35l.24.07c-.23.22-.43.6-.69.65-.83.14-.82.79-.79 1.37a2.69 2.69 0 0 1-.8 1.87c-1.12 1.45-2.1 3-3.18 4.5s-2.17 2.83-3.25 4.19a2.85 2.85 0 0 0-.56.85A2.76 2.76 0 0 1 76.65 65c-1.05.28-1.52 1.14-2.14 1.87a5.27 5.27 0 0 0-.62.94 10.85 10.85 0 0 1-2.81 3 2.34 2.34 0 0 0-.32.31c-.78 1-1.54 2.12-2.34 3.15a6.71 6.71 0 0 1-3.08 2.58c-1 .33-1.76 1.2-2.72 1.56a5.5 5.5 0 0 0-2.62 2.5 8.49 8.49 0 0 1-1.53 1.64c-.88.77-1.85 1.42-2.7 2.21s-1.41 1.55-2.12 2.31a1.66 1.66 0 0 1-.68.52q-2.41.55-4.86 1a3.81 3.81 0 0 1-3.52-1.35 1.18 1.18 0 0 0-1.2-.46 1.12 1.12 0 0 1-.57 0c-1.33-.61-2.67-1.22-4-1.9a1.69 1.69 0 0 1-.91-1.7 1.83 1.83 0 0 0-.67-1.61 1.45 1.45 0 0 1-.53-1.17 13.69 13.69 0 0 0-.38-2.09 1.9 1.9 0 0 1 .32-1.89c.35-.42.25-1.29.28-2 .06-1 .06-1.9.08-2.85a1.5 1.5 0 0 0 0-.3c-.2-.64-.39-1.28-.61-1.91s-.52-1-.12-1.62a.25.25 0 0 0 0-.22c-.72-1-.27-2.12-.34-3.18-.09-1.38.06-2.79.1-4.18a2.6 2.6 0 0 0 0-.84c-.46-1.25 0-2.39.31-3.58a13.36 13.36 0 0 0 .25-2.55v-2.74c0-1.44-.13-2.88-.22-4.32-.07-1-.17-2-.26-3.05v-.3c-.13-.62.07-1.46-.62-1.76a2.52 2.52 0 0 0-2.51.27 22.08 22.08 0 0 1-3.39 1.88 7.54 7.54 0 0 1-2.52.35 2.18 2.18 0 0 1-1.62-1.38 1.81 1.81 0 0 1 .84-1.72c.36-.28.62-.71 1-1a20.55 20.55 0 0 1 1.7-1.2c.65-.43 1.34-.8 2-1.22 1.32-.82 2.67-1.59 3.93-2.49.82-.59 1.48-1.42 2.28-2A50.09 50.09 0 0 1 45 27.52c.34-.17.74-.24 1.1-.39 1.15-.46 2.27-1 3.44-1.37a3.45 3.45 0 0 1 3 .66c.49.34.94.73 1.41 1.09.06 0 .14.08.17.14a8.58 8.58 0 0 1 .88 2.64 7.85 7.85 0 0 1-.81 3.45 4.34 4.34 0 0 0-.5 3.71c.22.56-.14 1.38-.23 2.08s-.17 1.64-.31 2.44a32.05 32.05 0 0 1-.66 3.24c-.25.87-.77 1.65-.48 2.64A3.35 3.35 0 0 1 52 49c0 .23-.12.51 0 .68.45.93 0 1.73-.25 2.58a6.43 6.43 0 0 0 .07 3.61 6.59 6.59 0 0 1 0 3.21 13 13 0 0 0-.21 4.92c.29 1.23 1 2.43.62 3.75a6 6 0 0 0 .25 3.51 1.6 1.6 0 0 0 1.08 1.24 4 4 0 0 0 1.49.11 8.5 8.5 0 0 0 4.72-2.87c.12-.13.22-.31.36-.37a4.68 4.68 0 0 0 2.25-2.61 4.17 4.17 0 0 1 .7-.88c1-1.12 2.12-2.18 3.07-3.37a15.42 15.42 0 0 0 1.12-2.18c.38-.67.83-1.3 1.25-1.94a19.58 19.58 0 0 0 1.35-2.05c.56-1.16 1-2.39 1.5-3.57.67-1.5 1.4-3 2-4.49a1.48 1.48 0 0 0-.07-1.11 3.07 3.07 0 0 1-.24-2.91 11.74 11.74 0 0 0 .56-1.64c.21-.65 0-1.1-.79-1.26-.93-.2-1.87-.3-2.81-.46a5.45 5.45 0 0 0-4.81 1.53c-.12.12-.27.22-.4.34-1.32 1.09-2.43.94-3.43-.48a1.91 1.91 0 0 1 .45-2.42 6.16 6.16 0 0 0 1.82-3.14A6.43 6.43 0 0 1 65 34.81c.16-.22.5-.37.55-.59.3-1.45 1.58-2 2.38-3a5.85 5.85 0 0 1 1-1.17 10.54 10.54 0 0 1 2-1.18c1-.47 2.11-.75 3.12-1.25A4.26 4.26 0 0 0 76 25.9a2 2 0 0 1 1.3-.82 13.52 13.52 0 0 1 2.38 0h1.35a7.64 7.64 0 0 0 .9-.17z" class="cls-1"/></svg>