<svg xmlns="http://www.w3.org/2000/svg" viewBox="0 0 205.18 205.18" width="205.18" height="205.18"><defs><style>.cls-1{fill:#fff}</style></defs><g id="Layer_2"><path id="Layer_1-2" d="M205 39.8A43.88 43.88 0 0 0 161.36 0H43.82A43.88 43.88 0 0 0 .19 39.8a40.89 40.89 0 0 0-.19 4v117.55a43.87 43.87 0 0 0 43.82 43.83h117.54a43.87 43.87 0 0 0 43.82-43.83V43.82c0-1.36-.06-2.7-.18-4.02zM43.82 25.9h117.54a18 18 0 0 1 10.31 3.18L114.79 85a28.73 28.73 0 0 0-3.29-1.21 30.81 30.81 0 0 0-17.81 0A28.73 28.73 0 0 0 90.4 85L33.56 29.13a17.89 17.89 0 0 1 10.26-3.23zM102.6 100A13.64 13.64 0 1 1 89 113.59 13.64 13.64 0 0 1 102.6 100zm76.68 61.39a17.73 17.73 0 0 1-17.92 17.92H43.82a17.73 17.73 0 0 1-17.92-17.96V65.07l45.79 45a31.52 31.52 0 0 0-.22 3.52 29.77 29.77 0 0 0 .23 3.67 31.13 31.13 0 0 0 27.76 27.28 29.74 29.74 0 0 0 3.14.16 29.37 29.37 0 0 0 3.12-.16 31.12 31.12 0 0 0 27.76-27.28 29.77 29.77 0 0 0 .23-3.67 31.54 31.54 0 0 0-.22-3.52l45.79-45z" class="cls-1"/></g></svg>