<svg xmlns="http://www.w3.org/2000/svg" viewBox="0 0 205.18 205.18"><defs><style>.cls-1{fill:#fff;}</style></defs><title>email</title><g id="Layer_2" data-name="Layer 2"><g id="Layer_1-2" data-name="Layer 1"><path class="cls-1" d="M205,39.8A43.88,43.88,0,0,0,161.36,0H43.82A43.88,43.88,0,0,0,.19,39.8c-.13,1.32-.19,2.66-.19,4V161.35a43.87,43.87,0,0,0,43.82,43.83H161.36a43.87,43.87,0,0,0,43.82-43.83V43.82C205.18,42.46,205.12,41.12,205,39.8ZM43.82,25.9H161.36a18,18,0,0,1,10.31,3.18L114.79,85a28.73,28.73,0,0,0-3.29-1.21,30.81,30.81,0,0,0-17.81,0A28.73,28.73,0,0,0,90.4,85L33.56,29.13A17.89,17.89,0,0,1,43.82,25.9ZM102.6,100A13.64,13.64,0,1,1,89,113.59,13.64,13.64,0,0,1,102.6,100Zm76.68,61.39a17.73,17.73,0,0,1-17.92,17.92H43.82A17.73,17.73,0,0,1,25.9,161.35V65.07l45.79,45a31.52,31.52,0,0,0-.22,3.52,29.77,29.77,0,0,0,.23,3.67,31.13,31.13,0,0,0,27.76,27.28,29.74,29.74,0,0,0,3.14.16,29.37,29.37,0,0,0,3.12-.16,31.12,31.12,0,0,0,27.76-27.28,29.77,29.77,0,0,0,.23-3.67,31.54,31.54,0,0,0-.22-3.52l45.79-45Z"/></g></g></svg>