<svg xmlns="http://www.w3.org/2000/svg" viewBox="0 0 205.18 205.18"><defs><style>.cls-1{fill:#fff;}</style></defs><title>flickr</title><g id="Layer_2" data-name="Layer 2"><g id="Layer_1-2" data-name="Layer 1"><path class="cls-1" d="M161.35,0H43.82A43.87,43.87,0,0,0,0,43.82V161.35a43.87,43.87,0,0,0,43.82,43.82H161.35a43.87,43.87,0,0,0,43.82-43.82V43.82A43.87,43.87,0,0,0,161.35,0Zm17.92,161.35a17.73,17.73,0,0,1-17.92,17.92H43.82A17.73,17.73,0,0,1,25.9,161.35V43.82A17.94,17.94,0,0,1,43.82,25.9H161.35a17.73,17.73,0,0,1,17.92,17.92Z"/><path class="cls-1" d="M68.6,72.92a29.51,29.51,0,1,0,29.49,29.52A29.55,29.55,0,0,0,68.6,72.92Z"/><path class="cls-1" d="M136.3,73a29.42,29.42,0,1,0,29.41,29.44A29.47,29.47,0,0,0,136.3,73Zm0,13.1a16.34,16.34,0,1,1-16.37,16.34A16.36,16.36,0,0,1,136.3,86.1Z"/></g></g></svg>