<svg xmlns="http://www.w3.org/2000/svg" viewBox="0 0 205.18 205.18" width="205.18" height="205.18"><defs><style>.cls-1{fill:#fff}</style></defs><g id="Layer_2"><g id="Layer_1-2"><path d="M161.35 0H43.82A43.87 43.87 0 0 0 0 43.82v117.53a43.87 43.87 0 0 0 43.82 43.82h117.53a43.87 43.87 0 0 0 43.82-43.82V43.82A43.87 43.87 0 0 0 161.35 0zm17.92 161.35a17.73 17.73 0 0 1-17.92 17.92H43.82a17.73 17.73 0 0 1-17.92-17.92V43.82A17.94 17.94 0 0 1 43.82 25.9h117.53a17.73 17.73 0 0 1 17.92 17.92z" class="cls-1"/><path d="M68.6 72.92a29.51 29.51 0 1 0 29.49 29.52A29.55 29.55 0 0 0 68.6 72.92zm67.7.08a29.42 29.42 0 1 0 29.41 29.44A29.47 29.47 0 0 0 136.3 73zm0 13.1a16.34 16.34 0 1 1-16.37 16.34A16.36 16.36 0 0 1 136.3 86.1z" class="cls-1"/></g></g></svg>