<svg xmlns="http://www.w3.org/2000/svg"><symbol id="email" viewBox="0 0 205.18 205.18"><defs><style>.cls-1{fill:#fff}</style></defs><g id="Layer_2"><path id="Layer_1-2" d="M205 39.8A43.88 43.88 0 0 0 161.36 0H43.82A43.88 43.88 0 0 0 .19 39.8a40.89 40.89 0 0 0-.19 4v117.55a43.87 43.87 0 0 0 43.82 43.83h117.54a43.87 43.87 0 0 0 43.82-43.83V43.82c0-1.36-.06-2.7-.18-4.02zM43.82 25.9h117.54a18 18 0 0 1 10.31 3.18L114.79 85a28.73 28.73 0 0 0-3.29-1.21 30.81 30.81 0 0 0-17.81 0A28.73 28.73 0 0 0 90.4 85L33.56 29.13a17.89 17.89 0 0 1 10.26-3.23zM102.6 100A13.64 13.64 0 1 1 89 113.59 13.64 13.64 0 0 1 102.6 100zm76.68 61.39a17.73 17.73 0 0 1-17.92 17.92H43.82a17.73 17.73 0 0 1-17.92-17.96V65.07l45.79 45a31.52 31.52 0 0 0-.22 3.52 29.77 29.77 0 0 0 .23 3.67 31.13 31.13 0 0 0 27.76 27.28 29.74 29.74 0 0 0 3.14.16 29.37 29.37 0 0 0 3.12-.16 31.12 31.12 0 0 0 27.76-27.28 29.77 29.77 0 0 0 .23-3.67 31.54 31.54 0 0 0-.22-3.52l45.79-45z" class="cls-1"/></g></symbol><symbol id="flickr" viewBox="0 0 205.18 205.18"><defs><style>.cls-1{fill:#fff}</style></defs><g id="Layer_2"><g id="Layer_1-2"><path d="M161.35 0H43.82A43.87 43.87 0 0 0 0 43.82v117.53a43.87 43.87 0 0 0 43.82 43.82h117.53a43.87 43.87 0 0 0 43.82-43.82V43.82A43.87 43.87 0 0 0 161.35 0zm17.92 161.35a17.73 17.73 0 0 1-17.92 17.92H43.82a17.73 17.73 0 0 1-17.92-17.92V43.82A17.94 17.94 0 0 1 43.82 25.9h117.53a17.73 17.73 0 0 1 17.92 17.92z" class="cls-1"/><path d="M68.6 72.92a29.51 29.51 0 1 0 29.49 29.52A29.55 29.55 0 0 0 68.6 72.92zm67.7.08a29.42 29.42 0 1 0 29.41 29.44A29.47 29.47 0 0 0 136.3 73zm0 13.1a16.34 16.34 0 1 1-16.37 16.34A16.36 16.36 0 0 1 136.3 86.1z" class="cls-1"/></g></g></symbol><symbol id="vimeo" viewBox="0 0 205.17 205.17"><defs><style>.cls-1{fill:#fff}</style></defs><g id="Layer_2"><path id="Layer_1-2" d="M182.89 0H22.28A22.27 22.27 0 0 0 0 22.28v160.61a22.27 22.27 0 0 0 22.28 22.28h160.61a22.27 22.27 0 0 0 22.28-22.28V22.28A22.27 22.27 0 0 0 182.89 0zm-9 67.28q-1 21.64-30.24 59.27-30.23 39.29-51.16 39.3-13 0-21.93-23.93L58.54 98q-6.66-23.88-14.29-23.9-1.67 0-11.63 7l-7-9q11-9.64 21.64-19.29 14.64-12.64 22-13.31 17.31-1.66 21.31 23.65 4.32 27.33 6 34 5 22.66 11 22.66 4.65 0 14-14.71t10-22.38q1.33-12.69-10-12.7a27.9 27.9 0 0 0-11 2.43q10.93-35.79 41.76-34.79 22.83.66 21.51 29.62z" class="cls-1"/></g></symbol><symbol id="instagram" viewBox="0 0 205.18 205.18"><defs><style>.cls-1{fill:#fff}</style></defs><g id="Layer_2"><path id="Layer_1-2" d="M181.8 0H23.37A23.37 23.37 0 0 0 0 23.37V181.8a23.37 23.37 0 0 0 23.37 23.37H181.8a23.37 23.37 0 0 0 23.37-23.37V23.37A23.37 23.37 0 0 0 181.8 0zm-79.21 62.91a39.67 39.67 0 1 1-39.67 39.67 39.67 39.67 0 0 1 39.67-39.67zm79.61 108.52a10.12 10.12 0 0 1-10.12 10.12H33.1A10.12 10.12 0 0 1 23 171.43v-85h18a63.52 63.52 0 1 0 123.17-.18c3.34-.34 18 .18 18 .18zm0-118.31a9.24 9.24 0 0 1-9.2 9.24h-21.5a9.24 9.24 0 0 1-9.24-9.24V33.56a9.24 9.24 0 0 1 9.24-9.24H173a9.24 9.24 0 0 1 9.24 9.24z" class="cls-1"/></g></symbol></svg>