<svg xmlns="http://www.w3.org/2000/svg"><symbol id="instagram" viewBox="0 0 205.18 205.18"><defs><style>.cls-1{fill:#fff}</style></defs><g id="Layer_2"><path id="Layer_1-2" d="M181.8 0H23.37A23.37 23.37 0 0 0 0 23.37V181.8a23.37 23.37 0 0 0 23.37 23.37H181.8a23.37 23.37 0 0 0 23.37-23.37V23.37A23.37 23.37 0 0 0 181.8 0zm-79.21 62.91a39.67 39.67 0 1 1-39.67 39.67 39.67 39.67 0 0 1 39.67-39.67zm79.61 108.52a10.12 10.12 0 0 1-10.12 10.12H33.1A10.12 10.12 0 0 1 23 171.43v-85h18a63.52 63.52 0 1 0 123.17-.18c3.34-.34 18 .18 18 .18zm0-118.31a9.24 9.24 0 0 1-9.2 9.24h-21.5a9.24 9.24 0 0 1-9.24-9.24V33.56a9.24 9.24 0 0 1 9.24-9.24H173a9.24 9.24 0 0 1 9.24 9.24z" class="cls-1"/></g></symbol></svg>