<svg xmlns="http://www.w3.org/2000/svg" viewBox="0 0 205.18 205.18"><defs><style>.cls-1{fill:#fff;}</style></defs><title>instagram</title><g id="Layer_2" data-name="Layer 2"><g id="Layer_1-2" data-name="Layer 1"><path class="cls-1" d="M181.8,0H23.37A23.37,23.37,0,0,0,0,23.37V181.8a23.37,23.37,0,0,0,23.37,23.37H181.8a23.37,23.37,0,0,0,23.37-23.37V23.37A23.37,23.37,0,0,0,181.8,0ZM102.59,62.91a39.67,39.67,0,1,1-39.67,39.67A39.67,39.67,0,0,1,102.59,62.91ZM182.2,171.43a10.12,10.12,0,0,1-10.12,10.12H33.1A10.12,10.12,0,0,1,23,171.43v-85H41a63.52,63.52,0,1,0,123.17-.18c3.34-.34,18,.18,18,.18Zm0-118.31A9.24,9.24,0,0,1,173,62.36H151.5a9.24,9.24,0,0,1-9.24-9.24V33.56a9.24,9.24,0,0,1,9.24-9.24H173a9.24,9.24,0,0,1,9.24,9.24Z"/></g></g></svg>