<svg xmlns="http://www.w3.org/2000/svg" viewBox="0 0 205.17 205.17" width="205.17" height="205.17"><defs><style>.cls-1{fill:#fff}</style></defs><g id="Layer_2"><path id="Layer_1-2" d="M182.89 0H22.28A22.27 22.27 0 0 0 0 22.28v160.61a22.27 22.27 0 0 0 22.28 22.28h160.61a22.27 22.27 0 0 0 22.28-22.28V22.28A22.27 22.27 0 0 0 182.89 0zm-9 67.28q-1 21.64-30.24 59.27-30.23 39.29-51.16 39.3-13 0-21.93-23.93L58.54 98q-6.66-23.88-14.29-23.9-1.67 0-11.63 7l-7-9q11-9.64 21.64-19.29 14.64-12.64 22-13.31 17.31-1.66 21.31 23.65 4.32 27.33 6 34 5 22.66 11 22.66 4.65 0 14-14.71t10-22.38q1.33-12.69-10-12.7a27.9 27.9 0 0 0-11 2.43q10.93-35.79 41.76-34.79 22.83.66 21.51 29.62z" class="cls-1"/></g></svg>